<svg id="acf1fde7-dea7-42eb-9e15-0dba7cae1ae1" data-name="Ebene 1" xmlns="http://www.w3.org/2000/svg" width="1200" height="1200" viewBox="0 0 1200 1200"><defs><style>.ef53a5ca-0aed-4b4b-9e1c-acd596a87355{fill:#888989;stroke:#777;stroke-miterlimit:10;stroke-width:3px;}</style></defs><title>Zeichenfläche 1</title><path class="ef53a5ca-0aed-4b4b-9e1c-acd596a87355" d="M1071.3147,271a58.2992,58.2992,0,0,1-74.5921,0H926.6418a58.2992,58.2992,0,0,1-74.5921,0H781.969a58.2993,58.2993,0,0,1-74.5922,0H637.2961a58.2993,58.2993,0,0,1-74.5922,0H492.6232a58.2993,58.2993,0,0,1-74.5922,0H347.95a58.2992,58.2992,0,0,1-74.5921,0H203.2774a58.2993,58.2993,0,0,1-74.5922,0H13.5v907h1173V271ZM165.9813,1144.5a58.3178,58.3178,0,1,1,58.3178-58.3177A58.3177,58.3177,0,0,1,165.9813,1144.5Zm0-144.6729a58.3178,58.3178,0,1,1,58.3178-58.3178A58.3178,58.3178,0,0,1,165.9813,999.8271Zm0-144.6729a58.3178,58.3178,0,1,1,58.3178-58.3178A58.3178,58.3178,0,0,1,165.9813,855.1542Zm0-144.6729a58.3178,58.3178,0,1,1,58.3178-58.3178A58.3178,58.3178,0,0,1,165.9813,710.4813Zm0-144.6729a58.3178,58.3178,0,1,1,58.3178-58.3177A58.3177,58.3177,0,0,1,165.9813,565.8084Zm0-144.6729a58.3178,58.3178,0,1,1,58.3178-58.3178A58.3177,58.3177,0,0,1,165.9813,421.1355ZM310.6542,1144.5a58.3178,58.3178,0,1,1,58.3178-58.3177A58.3178,58.3178,0,0,1,310.6542,1144.5Zm0-144.6729a58.3178,58.3178,0,1,1,58.3178-58.3178A58.3178,58.3178,0,0,1,310.6542,999.8271Zm0-144.6729a58.3178,58.3178,0,1,1,58.3178-58.3178A58.3178,58.3178,0,0,1,310.6542,855.1542Zm0-144.6729a58.3178,58.3178,0,1,1,58.3178-58.3178A58.3178,58.3178,0,0,1,310.6542,710.4813Zm0-144.6729a58.3178,58.3178,0,1,1,58.3178-58.3177A58.3178,58.3178,0,0,1,310.6542,565.8084Zm0-144.6729a58.3178,58.3178,0,1,1,58.3178-58.3178A58.3178,58.3178,0,0,1,310.6542,421.1355ZM455.3271,1144.5a58.3178,58.3178,0,1,1,58.3177-58.3177A58.3178,58.3178,0,0,1,455.3271,1144.5Zm0-144.6729a58.3178,58.3178,0,1,1,58.3177-58.3178A58.3178,58.3178,0,0,1,455.3271,999.8271Zm0-144.6729a58.3178,58.3178,0,1,1,58.3177-58.3178A58.3178,58.3178,0,0,1,455.3271,855.1542Zm0-144.6729a58.3178,58.3178,0,1,1,58.3177-58.3178A58.3178,58.3178,0,0,1,455.3271,710.4813Zm0-144.6729a58.3178,58.3178,0,1,1,58.3177-58.3177A58.3178,58.3178,0,0,1,455.3271,565.8084Zm0-144.6729a58.3178,58.3178,0,1,1,58.3177-58.3178A58.3178,58.3178,0,0,1,455.3271,421.1355ZM600,1144.5a58.3178,58.3178,0,1,1,58.3177-58.3177A58.3177,58.3177,0,0,1,600,1144.5Zm0-144.6729a58.3178,58.3178,0,1,1,58.3177-58.3178A58.3178,58.3178,0,0,1,600,999.8271Zm0-144.6729a58.3178,58.3178,0,1,1,58.3177-58.3178A58.3178,58.3178,0,0,1,600,855.1542Zm0-144.6729a58.3178,58.3178,0,1,1,58.3177-58.3178A58.3178,58.3178,0,0,1,600,710.4813Zm0-144.6729a58.3178,58.3178,0,1,1,58.3177-58.3177A58.3177,58.3177,0,0,1,600,565.8084Zm0-144.6729a58.3178,58.3178,0,1,1,58.3177-58.3178A58.3177,58.3177,0,0,1,600,421.1355ZM744.6729,1144.5a58.3178,58.3178,0,1,1,58.3178-58.3177A58.3177,58.3177,0,0,1,744.6729,1144.5Zm0-144.6729a58.3178,58.3178,0,1,1,58.3178-58.3178A58.3178,58.3178,0,0,1,744.6729,999.8271Zm0-144.6729a58.3178,58.3178,0,1,1,58.3178-58.3178A58.3178,58.3178,0,0,1,744.6729,855.1542Zm0-144.6729a58.3178,58.3178,0,1,1,58.3178-58.3178A58.3178,58.3178,0,0,1,744.6729,710.4813Zm0-144.6729a58.3178,58.3178,0,1,1,58.3178-58.3177A58.3177,58.3177,0,0,1,744.6729,565.8084Zm0-144.6729a58.3178,58.3178,0,1,1,58.3178-58.3178A58.3177,58.3177,0,0,1,744.6729,421.1355ZM889.3458,1144.5a58.3178,58.3178,0,1,1,58.3178-58.3177A58.3178,58.3178,0,0,1,889.3458,1144.5Zm0-144.6729a58.3178,58.3178,0,1,1,58.3178-58.3178A58.3178,58.3178,0,0,1,889.3458,999.8271Zm0-144.6729a58.3178,58.3178,0,1,1,58.3178-58.3178A58.3178,58.3178,0,0,1,889.3458,855.1542Zm0-144.6729a58.3178,58.3178,0,1,1,58.3178-58.3178A58.3178,58.3178,0,0,1,889.3458,710.4813Zm0-144.6729a58.3178,58.3178,0,1,1,58.3178-58.3177A58.3178,58.3178,0,0,1,889.3458,565.8084Zm0-144.6729a58.3178,58.3178,0,1,1,58.3178-58.3178A58.3178,58.3178,0,0,1,889.3458,421.1355ZM1034.0187,1144.5a58.3178,58.3178,0,1,1,58.3177-58.3177A58.3178,58.3178,0,0,1,1034.0187,1144.5Zm0-144.6729a58.3178,58.3178,0,1,1,58.3177-58.3178A58.3178,58.3178,0,0,1,1034.0187,999.8271Zm0-144.6729a58.3178,58.3178,0,1,1,58.3177-58.3178A58.3178,58.3178,0,0,1,1034.0187,855.1542Zm0-144.6729a58.3178,58.3178,0,1,1,58.3177-58.3178A58.3178,58.3178,0,0,1,1034.0187,710.4813Zm0-144.6729a58.3178,58.3178,0,1,1,58.3177-58.3177A58.3178,58.3178,0,0,1,1034.0187,565.8084Zm0-144.6729a58.3178,58.3178,0,1,1,58.3177-58.3178A58.3178,58.3178,0,0,1,1034.0187,421.1355Z"/></svg>